<svg width="119" height="39" fill="none" xmlns="http://www.w3.org/2000/svg"><path d="M50.366 16.593c.686.693 1.03 1.631 1.03 2.85v5.758h-2.46v-5.457c0-1.258-.743-1.932-1.888-1.932-1.277 0-2.098.769-2.098 2.325V25.2h-2.46V12.073h2.46v4.8c.592-.88 1.544-1.312 2.842-1.312 1.048 0 1.906.338 2.574 1.032zm9.415-.769h2.46v9.377h-2.46V24.15c-.593.881-1.544 1.31-2.842 1.31-1.047 0-1.906-.338-2.593-1.032-.667-.693-1.01-1.63-1.01-2.85v-5.754h2.46v5.457c0 1.256.744 1.932 1.887 1.932 1.278 0 2.098-.77 2.098-2.326v-5.063zm8.632 3.695c1.393.28 3.204.937 3.185 2.944 0 .955-.362 1.705-1.106 2.231-.728.512-1.64.768-2.727.768-1.964 0-3.299-.75-4.004-2.23l2.136-1.182c.285.805.896 1.219 1.868 1.219.877 0 1.316-.262 1.316-.806 0-.507-.763-.788-1.734-1.032-1.412-.356-3.186-.937-3.186-2.887 0-.921.344-1.65 1.03-2.176.706-.544 1.56-.807 2.594-.807 1.544 0 2.88.716 3.623 1.99l-2.098 1.125c-.305-.638-.82-.957-1.525-.957-.625 0-1.106.3-1.106.768 0 .507.761.787 1.734 1.032zm11.877-3.695h2.46v9.377h-2.46v-1.107c-.743.921-1.77 1.368-3.109 1.368-1.277 0-2.364-.468-3.28-1.425-.895-.956-1.352-2.138-1.352-3.525 0-1.386.458-2.55 1.352-3.506.916-.957 2.003-1.445 3.28-1.445 1.334 0 2.366.451 3.109 1.37v-1.107zm-2.65 7.332c.763 0 1.392-.244 1.888-.731.514-.506.761-1.144.761-1.913 0-.768-.247-1.406-.761-1.895-.497-.505-1.126-.749-1.888-.749-.761 0-1.393.244-1.888.75-.497.488-.744 1.125-.744 1.894 0 .77.247 1.407.744 1.913.495.488 1.124.732 1.888.731zm9.794-5.718c.458-1.2 1.603-1.801 2.898-1.801v2.7a2.902 2.902 0 00-2.02.45c-.591.394-.877 1.03-.877 1.932v4.482h-2.46v-9.377h2.46v1.614zm12.202-.845c.687.693 1.03 1.631 1.03 2.85v5.758h-2.457v-5.457c0-1.258-.743-1.932-1.888-1.932-1.277 0-2.098.768-2.098 2.325V25.2h-2.465v-9.377h2.46v1.05c.592-.881 1.545-1.313 2.841-1.313 1.051 0 1.91.338 2.577 1.032zm5.201 4.913c.323 1.182 1.22 1.763 2.688 1.763.936 0 1.664-.32 2.136-.938l1.983 1.125c-.936 1.33-2.327 2.006-4.157 2.006-1.583 0-2.842-.468-3.795-1.406-.953-.939-1.425-2.118-1.425-3.544 0-1.406.476-2.587 1.41-3.526.936-.955 2.156-1.425 3.624-1.425 1.392 0 2.554.47 3.451 1.425.915.957 1.374 2.12 1.374 3.526a6.368 6.368 0 01-.096.994h-7.193zm4.824-1.879c-.286-1.276-1.24-1.895-2.364-1.895-1.317 0-2.213.695-2.498 1.895h4.862zM119 18.15h-2.155v3.9c0 1.012.744 1.03 2.155.957v2.194c-3.375.374-4.615-.582-4.615-3.15V18.15h-1.658v-2.326h1.658V13.93l2.46-.73v2.624H119v2.326z" fill="#231F20"/><path d="M32.502 9.754l-15.07-8.556a1.59 1.59 0 00-1.574 0L4.644 7.565l-1.145.644a.778.778 0 00-.335.374.761.761 0 00.248.912.795.795 0 00.872.057l8.773-4.96a.794.794 0 00.134-.097l2.666-1.514v6.465l-8.02 4.54-5.666-3.203-1.08-.661a.717.717 0 00-.984.237.687.687 0 00-.098.353v.307c0 .025-.009.048-.009.073v17.114c0 .272.073.539.211.774s.337.43.577.566l11.263 6.392 1.144.649c.12.067.255.103.393.102a.795.795 0 00.48-.159.762.762 0 00.249-.91.778.778 0 00-.335-.374L8.196 31.96c-.01-.006-.022-.01-.033-.014L2.478 28.72l5.402-2.874 5.335 3.029a.798.798 0 001.074-.283.766.766 0 00-.287-1.057l-5.392-3.06v-5.928A.767.767 0 008.38 18a.793.793 0 00-1.113 0 .767.767 0 00-.23.547v5.992l-5.464 2.905V12.23l14.224 8.042v17.466a.726.726 0 00.37.636.758.758 0 00.746.005l1.907-1.063.105-.056.614-.342c.01-.005.016-.015.025-.02l12.94-7.347a1.56 1.56 0 00.576-.566 1.52 1.52 0 00.212-.774V11.094a1.52 1.52 0 00-.213-.774 1.561 1.561 0 00-.577-.566zM9.414 14.878l7.23-4.088 5.44 3.088a.799.799 0 001.075-.282.762.762 0 00.08-.587.776.776 0 00-.367-.47L17.44 9.454V2.988l13.673 7.762-14.555 8.166-7.143-4.038zm7.958 21.471V20.241l7.307-4.1v8.334l-5.723 3.248a.784.784 0 00-.365.472.762.762 0 00.286.814.793.793 0 00.583.15.798.798 0 00.29-.098l5.724-3.252 5.257 2.957-13.359 7.584zm14.345-8.812l-5.463-3.07v-9.209l5.463-3.07v15.349z" fill="#EC1C24"/></svg>